<?xml version='1.0' encoding='iso-8859-1'?>
<!DOCTYPE svg PUBLIC '-//W3C//DTD SVG 1.1//EN' 'http://www.w3.org/Graphics/SVG/1.1/DTD/svg11.dtd'>
<svg version="1.1" xmlns="http://www.w3.org/2000/svg" viewBox="0 0 203.475 203.475" xmlns:xlink="http://www.w3.org/1999/xlink" enable-background="new 0 0 203.475 203.475">
  <g>
    <path d="m179.889,12.287c-1.77-2.8-5.478-3.637-8.277-1.866l-18.146,11.469h-10.076l-18.146-11.469c-2.799-1.771-6.507-0.935-8.277,1.866-1.771,2.801-0.935,6.507 1.867,8.277l16.82,10.631v29.054l-6.641,30.991c-0.694,3.24 1.37,6.43 4.61,7.124 0.424,0.091 0.846,0.135 1.263,0.135 2.769,0 5.258-1.928 5.861-4.744l5.543-25.868h4.427l6.271,26.017c0.663,2.749 3.12,4.595 5.828,4.595 0.466,0 0.938-0.055 1.411-0.168 3.222-0.777 5.203-4.018 4.427-7.239l-7.453-30.918v-28.979l16.82-10.631c2.802-1.77 3.638-5.476 1.868-8.277z"/>
    <circle cx="148.394" cy="9.171" r="9.171"/>
    <path d="m52.563,150.02h-16.869c-7.188,0-13.037,5.848-13.037,13.037v27.382c0,7.188 5.849,13.037 13.037,13.037h16.868c7.188,0 13.036-5.848 13.036-13.037v-27.382c0.001-7.189-5.847-13.037-13.035-13.037zm1.036,40.418c0,0.572-0.465,1.037-1.036,1.037h-16.869c-0.572,0-1.037-0.465-1.037-1.037v-27.382c0-0.572 0.465-1.037 1.037-1.037h16.868c0.571,0 1.036,0.465 1.036,1.037v27.382z"/>
    <path d="m104.635,128.641h-16.868c-7.188,0-13.037,5.848-13.037,13.037v48.761c0,7.188 5.849,13.037 13.037,13.037h16.868c7.188,0 13.036-5.848 13.036-13.037v-48.761c1.42109e-14-7.189-5.848-13.037-13.036-13.037zm1.036,61.797c0,0.572-0.465,1.037-1.036,1.037h-16.868c-0.572,0-1.037-0.465-1.037-1.037v-48.761c0-0.572 0.465-1.037 1.037-1.037h16.868c0.571,0 1.036,0.465 1.036,1.037v48.761z"/>
    <path d="m158.216,105.716h-16.868c-7.188,0-13.037,5.848-13.037,13.037v71.686c0,7.188 5.849,13.037 13.037,13.037h16.868c7.188,0 13.036-5.848 13.036-13.037v-71.686c0-7.189-5.848-13.037-13.036-13.037zm1.036,84.722c0,0.572-0.465,1.037-1.036,1.037h-16.868c-0.572,0-1.037-0.465-1.037-1.037v-71.686c0-0.572 0.465-1.037 1.037-1.037h16.868c0.571,0 1.036,0.465 1.036,1.037v71.686z"/>
  </g>
</svg>
